<svg width="70" height="63" viewBox="0 0 70 63" fill="none" xmlns="http://www.w3.org/2000/svg">
<rect width="70" height="62.9958" rx="18" />
<path d="M23.8496 21.5475H46.1496M23.8496 29.0375H46.1496M23.8496 36.5275H46.1496M23.8496 44.0275H46.1496M26.6396 12.0075C26.2677 11.9807 25.8943 12.0342 25.5449 12.1645C25.1955 12.2947 24.8781 12.4986 24.6145 12.7623C24.3508 13.026 24.1469 13.3433 24.0167 13.6927C23.8864 14.0421 23.8329 14.4155 23.8596 14.7875H21.0796C20.7056 14.7573 20.3295 14.8087 19.9772 14.9382C19.625 15.0678 19.3052 15.2723 19.0398 15.5377C18.7745 15.803 18.57 16.1229 18.4404 16.4751C18.3109 16.8273 18.2595 17.2034 18.2896 17.5775V48.2075C18.261 48.5807 18.3136 48.9557 18.4438 49.3067C18.574 49.6577 18.7787 49.9763 19.0439 50.2405C19.3091 50.5047 19.6284 50.7083 19.9799 50.8373C20.3313 50.9662 20.7065 51.0175 21.0796 50.9875H48.9196C49.2928 51.0175 49.668 50.9662 50.0194 50.8373C50.3709 50.7083 50.6902 50.5047 50.9554 50.2405C51.2205 49.9763 51.4253 49.6577 51.5555 49.3067C51.6857 48.9557 51.7383 48.5807 51.7096 48.2075V17.5775C51.7398 17.2034 51.6884 16.8273 51.5589 16.4751C51.4293 16.1229 51.2248 15.803 50.9595 15.5377C50.6941 15.2723 50.3743 15.0678 50.022 14.9382C49.6698 14.8087 49.2937 14.7573 48.9196 14.7875H46.1396C46.1396 11.0775 40.5696 11.0775 40.5696 14.7875H29.4296C29.4566 14.4146 29.4028 14.0403 29.272 13.6901C29.1412 13.3399 28.9364 13.0221 28.6716 12.7582C28.4068 12.4944 28.0882 12.2907 27.7375 12.1611C27.3869 12.0316 27.0124 11.9792 26.6396 12.0075V12.0075Z" stroke="white" stroke-width="3" stroke-linecap="round" stroke-linejoin="round"/>
</svg>
