<svg width="40" height="41" viewBox="0 0 40 41" fill="none" xmlns="http://www.w3.org/2000/svg">
<path d="M20 33.4961H38.75V35.9961H20V33.4961ZM20 25.1627H38.75V27.6627H20V25.1627ZM20 16.8295H38.75V19.3295H20V16.8295ZM25.625 8.49609H38.75V10.9961H25.625V8.49609Z" fill="white"/>
<path d="M23.5938 9.6677L13.0625 3.12207V8.49582H12.5965C9.5143 8.49582 6.63359 9.96105 4.48438 12.6216C2.39844 15.2041 1.25 18.6221 1.25 22.2458C1.25 25.8696 2.39844 29.2875 4.48438 31.87C6.63359 34.5306 9.5143 35.9958 12.5962 35.9958H16.875V33.4958H12.5962C7.71875 33.4958 3.75 28.4489 3.75 22.2458C3.75 16.0427 7.71875 10.9958 12.5962 10.9958H13.0625V16.4043L23.5938 9.6677ZM15.5625 7.61957L18.9062 9.69824L15.5625 11.8374V7.61957Z" fill="white"/>
</svg>
