<svg width="40" height="41" viewBox="0 0 40 41" fill="none" xmlns="http://www.w3.org/2000/svg">
<path d="M35 3.49609C35.663 3.49609 36.2989 3.75949 36.7678 4.22833C37.2366 4.69717 37.5 5.33305 37.5 5.99609V35.9961C37.5 36.6591 37.2366 37.295 36.7678 37.7639C36.2989 38.2327 35.663 38.4961 35 38.4961H5C4.33696 38.4961 3.70107 38.2327 3.23223 37.7639C2.76339 37.295 2.5 36.6591 2.5 35.9961V5.99609C2.5 5.33305 2.76339 4.69717 3.23223 4.22833C3.70107 3.75949 4.33696 3.49609 5 3.49609H35ZM5 0.996094C3.67392 0.996094 2.40215 1.52288 1.46447 2.46056C0.526784 3.39824 0 4.67001 0 5.99609L0 35.9961C0 37.3222 0.526784 38.5939 1.46447 39.5316C2.40215 40.4693 3.67392 40.9961 5 40.9961H35C36.3261 40.9961 37.5979 40.4693 38.5355 39.5316C39.4732 38.5939 40 37.3222 40 35.9961V5.99609C40 4.67001 39.4732 3.39824 38.5355 2.46056C37.5979 1.52288 36.3261 0.996094 35 0.996094L5 0.996094Z" fill="white"/>
<path d="M20 10.9961C20.3315 10.9961 20.6495 11.1278 20.8839 11.3622C21.1183 11.5966 21.25 11.9146 21.25 12.2461V19.7461H28.75C29.0815 19.7461 29.3995 19.8778 29.6339 20.1122C29.8683 20.3466 30 20.6646 30 20.9961C30 21.3276 29.8683 21.6456 29.6339 21.88C29.3995 22.1144 29.0815 22.2461 28.75 22.2461H21.25V29.7461C21.25 30.0776 21.1183 30.3956 20.8839 30.63C20.6495 30.8644 20.3315 30.9961 20 30.9961C19.6685 30.9961 19.3505 30.8644 19.1161 30.63C18.8817 30.3956 18.75 30.0776 18.75 29.7461V22.2461H11.25C10.9185 22.2461 10.6005 22.1144 10.3661 21.88C10.1317 21.6456 10 21.3276 10 20.9961C10 20.6646 10.1317 20.3466 10.3661 20.1122C10.6005 19.8778 10.9185 19.7461 11.25 19.7461H18.75V12.2461C18.75 11.9146 18.8817 11.5966 19.1161 11.3622C19.3505 11.1278 19.6685 10.9961 20 10.9961Z" fill="white"/>
</svg>
